<svg width="1126" height="965" viewBox="0 0 1126 965" fill="none" xmlns="http://www.w3.org/2000/svg">
<path fill-rule="evenodd" clip-rule="evenodd" d="M874.66 423.66C821.66 570.72 659.53 646.97 512.47 593.99C492.885 586.955 474.135 577.783 456.56 566.64L458.16 565.24C467.618 570.079 477.374 574.311 487.37 577.91C615.9 624.22 757.62 557.56 803.92 429.04C820.312 383.366 822.94 333.885 811.478 286.731C800.016 239.577 774.969 196.824 739.44 163.77L791.31 118.71L793.31 117L793.19 116.88L793.94 116.22C853.098 173.916 887.685 252.232 890.48 334.82C890.653 339.847 890.7 344.887 890.62 349.94C888.613 375.115 883.246 399.909 874.66 423.66Z" fill="#C7102E"/>
<path d="M669.58 112.58L668 114C658.543 109.159 648.786 104.927 638.79 101.33C510.24 55 368.51 121.65 322.2 250.18C305.777 295.849 303.134 345.337 314.602 392.495C326.069 439.653 351.14 482.402 386.7 515.43L334.81 560.5L332.81 562.21L332.94 562.34L332.19 562.99C273.024 505.298 238.433 426.98 235.64 344.39C235.47 339.39 235.42 334.32 235.5 329.27C237.501 304.1 242.859 279.31 251.43 255.56C304.43 108.56 466.58 32.24 613.63 85.22C633.227 92.2607 651.99 101.436 669.58 112.58Z" fill="#C7102E"/>
<path fill-rule="evenodd" clip-rule="evenodd" d="M882.78 454.23C819.3 630.43 625.01 721.8 448.83 658.32C403.23 641.965 361.681 615.995 327 582.17L386.55 530.45L386.78 530.7L486 444.57L494.15 437.49L534.28 402.63L583 360.26L686.85 270.05L761.34 296.88L711.51 340.17L687.44 361.08L657.44 387.08L608.66 429.45L568.53 464.31L560.38 471.39L441.2 575C459.883 586.847 479.813 596.603 500.63 604.09C656.94 660.4 829.31 579.33 885.63 423.03C895.356 396.1 901.184 367.919 902.94 339.34C902.917 378.515 896.096 417.388 882.78 454.23Z" fill="#012169"/>
<path fill-rule="evenodd" clip-rule="evenodd" d="M799.13 97L739.59 148.72L739.33 148.47L665.44 212.67L632.03 241.67L591.9 276.53L543.11 319L458.38 392.6L439.25 409.22L395.07 393.3C395.48 392 396.07 390.12 396.77 387.85C409.32 346.74 423.85 299.16 416.46 255.65C413.69 239.34 405.24 208.35 373.36 174.71C381.52 177.71 441.63 201.04 464.22 266.64C466.922 274.492 468.93 282.567 470.22 290.77L517.39 249.77L557.52 214.91L585.52 190.57L684.89 104.26C666.211 92.414 646.284 82.6619 625.47 75.18C469.16 18.86 296.79 99.93 240.47 256.24C230.749 283.168 224.92 311.345 223.16 339.92C223.187 300.734 230.015 261.851 243.34 225C306.83 48.8 501.11 -42.57 677.34 20.91C722.919 37.2549 764.454 63.2041 799.13 97Z" fill="#012169"/>
<path d="M123.39 898.59L106.85 870.82H54.66L63.76 855.2H97.59L73 813.93L23 898.59H1L64.37 793C65.3538 791.227 66.6955 789.677 68.31 788.45C69.9005 787.315 71.817 786.729 73.77 786.78C75.7025 786.721 77.5994 787.309 79.16 788.45C80.7311 789.695 82.0369 791.242 83 793L146.57 898.6L123.39 898.59Z" fill="#C7102E"/>
<path d="M158.43 898.59V879.32H241.12C246.28 879.32 250.25 877.987 253.03 875.32C254.427 873.971 255.52 872.342 256.239 870.538C256.958 868.735 257.286 866.799 257.2 864.86C257.2 860.1 255.81 856.533 253.03 854.16C250.25 851.787 246.28 850.597 241.12 850.59H190.45C185.68 850.651 180.938 849.855 176.45 848.24C172.497 846.826 168.88 844.605 165.83 841.72C162.929 838.915 160.656 835.528 159.16 831.78C157.562 827.777 156.764 823.5 156.81 819.19C156.769 814.966 157.515 810.771 159.01 806.82C160.42 803.111 162.648 799.768 165.53 797.04C168.62 794.183 172.261 791.989 176.23 790.59C180.906 788.95 185.836 788.154 190.79 788.24H270V807.51H190.8C186.347 807.51 182.907 808.697 180.48 811.07C178.053 813.443 176.84 816.757 176.84 821.01C176.84 825.263 178.08 828.55 180.56 830.87C183.04 833.19 186.403 834.353 190.65 834.36H241.17C252.403 834.36 260.927 836.99 266.74 842.25C272.553 847.51 275.46 855.51 275.46 866.25C275.502 870.64 274.784 875.004 273.34 879.15C271.988 882.989 269.81 886.485 266.96 889.39C263.934 892.396 260.285 894.7 256.27 896.14C251.424 897.851 246.308 898.674 241.17 898.57L158.43 898.59Z" fill="#C7102E"/>
<path d="M292 898.59V788.29H390.46V807.56H311.06V879.32H390.56V898.59H292ZM325.22 850.64V834.41H386.37V850.64H325.22Z" fill="#C7102E"/>
<path d="M502.08 898.59C494.747 898.666 487.482 897.19 480.76 894.26C474.367 891.48 468.589 887.459 463.76 882.43C458.869 877.292 455.052 871.23 452.53 864.6C449.812 857.483 448.456 849.918 448.53 842.3C448.428 834.728 449.786 827.208 452.53 820.15C455.034 813.735 458.86 807.919 463.76 803.08C468.633 798.332 474.416 794.618 480.76 792.16C487.557 789.529 494.792 788.216 502.08 788.29H561.85V807.56H502.08C497.368 807.51 492.695 808.411 488.34 810.21C484.265 811.903 480.577 814.407 477.5 817.57C474.399 820.801 471.975 824.619 470.37 828.8C468.6 833.395 467.724 838.286 467.79 843.21C467.742 848.132 468.617 853.02 470.37 857.62C471.958 861.878 474.382 865.774 477.5 869.08C480.57 872.289 484.257 874.843 488.34 876.59C492.682 878.439 497.361 879.368 502.08 879.32H549.26V850.64H499.5V834.41H568.68V898.59H502.08Z" fill="#C7102E"/>
<path d="M688.84 898.59L660.92 867.94H619.66V850.94H665.66C672.64 850.94 677.9 849.043 681.44 845.25C684.98 841.457 686.75 835.97 686.75 828.79C686.75 821.61 684.903 816.277 681.21 812.79C677.517 809.303 672.333 807.56 665.66 807.56H605.58V898.56H586.46V788.26H665.66C671.396 788.168 677.102 789.117 682.5 791.06C687.246 792.771 691.55 795.522 695.097 799.11C698.644 802.698 701.344 807.034 703 811.8C704.886 817.159 705.811 822.809 705.73 828.49C705.73 837.703 703.73 845.417 699.73 851.63C695.764 857.825 689.872 862.544 682.96 865.06L716.19 898.59H688.84Z" fill="#C7102E"/>
<path d="M774 898.59C766.671 898.665 759.409 897.189 752.69 894.26C746.299 891.476 740.521 887.456 735.69 882.43C730.806 877.289 726.992 871.228 724.47 864.6C721.752 857.483 720.396 849.918 720.47 842.3C720.368 834.728 721.726 827.208 724.47 820.15C726.974 813.737 730.796 807.922 735.69 803.08C740.566 798.335 746.348 794.622 752.69 792.16C759.484 789.53 766.715 788.217 774 788.29H800.86C808.351 788.197 815.791 789.534 822.78 792.23C829.184 794.685 835 798.46 839.85 803.31C844.7 808.16 848.475 813.976 850.93 820.38C853.621 827.371 854.958 834.81 854.87 842.3C854.944 849.918 853.588 857.483 850.87 864.6C848.348 871.23 844.531 877.292 839.64 882.43C834.794 887.47 828.991 891.492 822.57 894.26C815.722 897.205 808.333 898.68 800.88 898.59H774ZM800.86 879.32C805.664 879.378 810.43 878.449 814.86 876.59C819.037 874.845 822.81 872.257 825.941 868.988C829.073 865.719 831.496 861.838 833.06 857.59C834.808 852.989 835.683 848.102 835.64 843.18C835.688 838.28 834.813 833.415 833.06 828.84C831.483 824.639 829.051 820.812 825.919 817.6C822.786 814.388 819.02 811.861 814.86 810.18C810.417 808.371 805.657 807.47 800.86 807.53H774C769.292 807.481 764.622 808.382 760.27 810.18C756.194 811.871 752.505 814.375 749.43 817.54C746.329 820.773 743.902 824.591 742.29 828.77C740.528 833.367 739.656 838.257 739.72 843.18C739.674 848.101 740.546 852.988 742.29 857.59C743.886 861.846 746.313 865.742 749.43 869.05C752.498 872.261 756.186 874.816 760.27 876.56C764.609 878.408 769.284 879.337 774 879.29L800.86 879.32Z" fill="#C7102E"/>
<path d="M969.06 788.29H987.88V849.89C988.024 857.432 986.895 864.944 984.54 872.11C982.486 878.173 978.876 883.591 974.07 887.82C969.323 891.96 963.18 895.043 955.64 897.07C948.1 899.097 938.97 900.097 928.25 900.07C917.63 900.07 908.553 899.07 901.02 897.07C893.487 895.07 887.34 891.987 882.58 887.82C877.774 883.593 874.166 878.174 872.12 872.11C869.76 864.945 868.631 857.432 868.78 849.89V788.29H888.65V849.89C888.524 854.721 889.2 859.54 890.65 864.15C891.92 867.95 894.235 871.316 897.33 873.86C900.964 876.641 905.196 878.538 909.69 879.4C922.328 881.72 935.282 881.72 947.92 879.4C952.417 878.536 956.651 876.639 960.29 873.86C963.382 871.313 965.697 867.949 966.97 864.15C968.415 859.539 969.091 854.721 968.97 849.89L969.06 788.29Z" fill="#C7102E"/>
<path d="M1038.55 867.94V849.28H1082.85C1089.63 849.28 1094.92 847.357 1098.71 843.51C1102.5 839.663 1104.4 834.607 1104.4 828.34C1104.4 821.973 1102.5 816.917 1098.71 813.17C1094.92 809.423 1089.63 807.553 1082.85 807.56H1024.44V898.56H1005.32V788.26H1082.85C1088.66 788.163 1094.44 789.111 1099.92 791.06C1104.65 792.767 1108.97 795.456 1112.59 798.95C1116.1 802.443 1118.79 806.667 1120.48 811.32C1124.12 821.913 1124.12 833.417 1120.48 844.01C1118.79 848.788 1116.07 853.138 1112.52 856.755C1108.97 860.372 1104.67 863.169 1099.92 864.95C1094.47 867.016 1088.68 868.034 1082.85 867.95L1038.55 867.94Z" fill="#C7102E"/>
<path d="M0.900024 963.77V938H19.77C20.9236 937.988 22.0737 938.129 23.19 938.42C24.1408 938.672 25.0362 939.099 25.83 939.68C26.5564 940.23 27.1395 940.947 27.53 941.77C27.9468 942.676 28.1552 943.663 28.14 944.66C28.1515 945.394 28.0537 946.125 27.85 946.83C27.6845 947.395 27.4204 947.927 27.07 948.4C26.7533 948.831 26.3642 949.203 25.92 949.5C25.5013 949.791 25.0388 950.014 24.55 950.16C25.7147 950.519 26.7343 951.241 27.46 952.22C28.2491 953.307 28.6505 954.628 28.6 955.97C28.6156 957.068 28.4152 958.159 28.01 959.18C27.6401 960.113 27.074 960.955 26.35 961.65C25.5909 962.351 24.6957 962.889 23.72 963.23C22.6191 963.605 21.4628 963.791 20.3 963.78L0.900024 963.77ZM8.66998 952.56V948.77H19.8C20.7983 948.844 21.7939 948.595 22.64 948.06C22.9695 947.757 23.2241 947.382 23.3838 946.963C23.5434 946.545 23.6038 946.096 23.56 945.65C23.5886 945.074 23.4533 944.502 23.17 944C22.91 943.558 22.5184 943.208 22.05 943C21.5009 942.761 20.9167 942.612 20.32 942.56C19.5724 942.485 18.8214 942.448 18.07 942.45H5.40997V959.26H18.46C19.2071 959.264 19.9532 959.204 20.69 959.08C21.3079 958.986 21.906 958.79 22.46 958.5C22.92 958.263 23.3174 957.92 23.62 957.5C23.9002 957.015 24.0388 956.46 24.02 955.9C24.046 955.442 23.9697 954.983 23.7968 954.558C23.6238 954.132 23.3585 953.75 23.02 953.44C22.1886 952.805 21.1536 952.495 20.11 952.57L8.66998 952.56Z" fill="#012169"/>
<path d="M66 963.77V938H89V942.5H70.44V959.27H89V963.78L66 963.77ZM73.77 952.56V948.77H88V952.56H73.77Z" fill="#012169"/>
<path d="M138.24 963.77V954L124.55 938H130.61L140.61 949.88L150.72 938H156.46L142.74 954V963.79L138.24 963.77Z" fill="#012169"/>
<path d="M200.93 963.77C199.211 963.794 197.507 963.454 195.93 962.77C194.422 962.118 193.061 961.168 191.928 959.977C190.796 958.786 189.916 957.379 189.34 955.84C188.701 954.178 188.382 952.41 188.4 950.63C188.376 948.859 188.696 947.1 189.34 945.45C189.922 943.947 190.815 942.584 191.96 941.45C193.108 940.339 194.469 939.472 195.96 938.9C197.555 938.287 199.252 937.982 200.96 938H207.23C208.983 937.975 210.725 938.288 212.36 938.92C213.856 939.501 215.217 940.383 216.36 941.51C217.489 942.65 218.367 944.012 218.94 945.51C219.576 947.141 219.891 948.879 219.87 950.63C219.883 952.41 219.565 954.177 218.93 955.84C218.336 957.39 217.443 958.807 216.3 960.01C215.165 961.189 213.805 962.128 212.3 962.77C210.699 963.457 208.972 963.798 207.23 963.77H200.93ZM207.2 959.26C208.319 959.274 209.429 959.056 210.46 958.62C211.439 958.218 212.323 957.616 213.056 956.854C213.79 956.091 214.356 955.184 214.72 954.19C215.127 953.113 215.33 951.971 215.32 950.82C215.33 949.676 215.127 948.54 214.72 947.47C214.348 946.484 213.776 945.585 213.04 944.83C212.304 944.089 211.427 943.504 210.46 943.11C209.425 942.69 208.317 942.479 207.2 942.49H200.93C199.829 942.48 198.738 942.691 197.72 943.11C196.765 943.505 195.901 944.09 195.18 944.83C194.458 945.584 193.894 946.475 193.52 947.45C193.101 948.523 192.894 949.668 192.91 950.82C192.898 951.972 193.105 953.115 193.52 954.19C193.89 955.185 194.454 956.096 195.18 956.87C195.9 957.619 196.764 958.214 197.72 958.62C198.734 959.055 199.827 959.273 200.93 959.26H207.2Z" fill="#012169"/>
<path d="M261.1 944.9V963.77H256.81V940.36C256.77 939.64 256.99 938.931 257.43 938.36C257.638 938.122 257.897 937.933 258.188 937.809C258.479 937.684 258.794 937.626 259.11 937.64C259.455 937.634 259.796 937.706 260.11 937.85C260.484 938.024 260.823 938.264 261.11 938.56L279.3 956.61V937.74H283.59V961.36C283.63 962.079 283.41 962.789 282.97 963.36C282.773 963.591 282.525 963.775 282.246 963.896C281.967 964.017 281.664 964.074 281.36 964.06C280.97 964.051 280.586 963.961 280.232 963.798C279.878 963.635 279.56 963.4 279.3 963.11L261.1 944.9Z" fill="#012169"/>
<path d="M321.31 963.77V938H336.24C337.95 937.983 339.648 938.295 341.24 938.92C342.738 939.497 344.101 940.379 345.24 941.51C346.371 942.653 347.259 944.014 347.85 945.51C348.494 947.139 348.813 948.878 348.79 950.63C348.808 952.41 348.489 954.178 347.85 955.84C347.26 957.387 346.373 958.803 345.24 960.01C344.109 961.193 342.748 962.132 341.24 962.77C339.662 963.449 337.958 963.79 336.24 963.77H321.31ZM336.24 959.26C337.343 959.27 338.436 959.052 339.45 958.62C340.408 958.212 341.275 957.617 342 956.87C342.735 956.099 343.306 955.187 343.68 954.19C344.09 953.114 344.297 951.971 344.29 950.82C344.297 949.675 344.09 948.539 343.68 947.47C343.308 946.484 342.736 945.585 342 944.83C341.273 944.092 340.406 943.507 339.45 943.11C338.432 942.693 337.34 942.482 336.24 942.49H325.78V959.26H336.24Z" fill="#012169"/>
<path d="M429.78 963.77V938H452.78V942.5H434.24V959.27H452.82V963.78L429.78 963.77ZM437.54 952.56V948.77H451.83V952.56H437.54Z" fill="#012169"/>
<path d="M516.05 963.77L505.23 953.23L494.52 963.77H488.67L502.5 950.36L489.67 938H495.87L505.69 947.54L515.37 938H521.22L508.39 950.37L522.39 963.78L516.05 963.77Z" fill="#012169"/>
<path d="M566.79 956.6V952.24H577.14C577.818 952.279 578.496 952.179 579.134 951.947C579.772 951.715 580.356 951.355 580.85 950.89C581.707 949.908 582.18 948.649 582.18 947.345C582.18 946.041 581.707 944.782 580.85 943.8C580.35 943.345 579.764 942.995 579.127 942.77C578.49 942.545 577.815 942.45 577.14 942.49H563.49V963.77H559V938H577.12C578.481 937.978 579.836 938.198 581.12 938.65C582.241 939.046 583.263 939.676 584.12 940.5C584.943 941.314 585.575 942.301 585.97 943.39C586.823 945.865 586.823 948.555 585.97 951.03C585.571 952.149 584.941 953.171 584.12 954.03C583.273 954.885 582.249 955.544 581.12 955.96C579.842 956.44 578.485 956.674 577.12 956.65L566.79 956.6Z" fill="#012169"/>
<path d="M623.2 963.77V938H646.2V942.5H627.65V959.27H646.23V963.78L623.2 963.77ZM630.97 952.56V948.77H645.26V952.56H630.97Z" fill="#012169"/>
<path d="M695.33 963.77C693.611 963.794 691.907 963.454 690.33 962.77C688.828 962.122 687.469 961.184 686.33 960.01C685.19 958.806 684.3 957.389 683.71 955.84C683.071 954.178 682.752 952.41 682.77 950.63C682.746 948.859 683.065 947.1 683.71 945.45C684.296 943.949 685.188 942.587 686.33 941.45C687.478 940.34 688.839 939.472 690.33 938.9C691.925 938.287 693.621 937.982 695.33 938H709.33V942.5H695.33C694.229 942.49 693.138 942.701 692.12 943.12C691.165 943.515 690.301 944.1 689.58 944.84C688.858 945.594 688.294 946.485 687.92 947.46C687.501 948.534 687.294 949.678 687.31 950.83C687.298 951.982 687.505 953.125 687.92 954.2C688.29 955.195 688.854 956.106 689.58 956.88C690.3 957.629 691.164 958.224 692.12 958.63C693.134 959.065 694.227 959.283 695.33 959.27H709.33V963.78L695.33 963.77Z" fill="#012169"/>
<path d="M754.65 963.77V942.49H744.86V938H768.94V942.5H759.15V963.78L754.65 963.77Z" fill="#012169"/>
<path d="M827.38 963.77L823.51 957.28H811.31L813.44 953.62H821.35L815.6 943.98L803.9 963.77H798.76L813.58 939.09C813.81 938.674 814.123 938.31 814.5 938.02C814.873 937.755 815.322 937.618 815.78 937.63C816.232 937.614 816.676 937.751 817.04 938.02C817.407 938.314 817.713 938.678 817.94 939.09L832.8 963.77H827.38Z" fill="#012169"/>
<path d="M872.69 963.77V942.49H862.91V938H887V942.5H877.22V963.78L872.69 963.77Z" fill="#012169"/>
<path d="M923.65 963.77V938H928.15V963.78L923.65 963.77Z" fill="#012169"/>
<path d="M978.07 963.77C976.351 963.795 974.647 963.454 973.07 962.77C971.562 962.118 970.201 961.168 969.068 959.977C967.936 958.786 967.056 957.379 966.48 955.84C965.841 954.178 965.522 952.41 965.54 950.63C965.516 948.859 965.835 947.1 966.48 945.45C967.062 943.947 967.955 942.584 969.1 941.45C970.246 940.337 971.607 939.47 973.1 938.9C974.695 938.287 976.391 937.981 978.1 938H984.38C986.13 937.974 987.868 938.287 989.5 938.92C990.997 939.494 992.356 940.376 993.49 941.51C994.624 942.644 995.506 944.003 996.08 945.5C996.712 947.132 997.025 948.87 997 950.62C997.018 952.4 996.699 954.168 996.06 955.83C995.474 957.381 994.583 958.799 993.44 960C992.305 961.179 990.945 962.118 989.44 962.76C987.839 963.445 986.111 963.786 984.37 963.76L978.07 963.77ZM984.35 959.26C985.469 959.274 986.579 959.056 987.61 958.62C988.577 958.217 989.451 957.622 990.18 956.87C990.918 956.099 991.492 955.188 991.87 954.19C992.277 953.113 992.48 951.971 992.47 950.82C992.48 949.676 992.277 948.54 991.87 947.47C991.498 946.489 990.928 945.596 990.195 944.845C989.462 944.095 988.582 943.504 987.61 943.11C986.575 942.69 985.467 942.479 984.35 942.49H978.07C976.973 942.481 975.885 942.692 974.87 943.11C973.914 943.502 973.049 944.088 972.33 944.83C971.607 945.586 971.04 946.476 970.66 947.45C970.25 948.525 970.046 949.669 970.06 950.82C970.05 951.971 970.253 953.113 970.66 954.19C971.038 955.183 971.605 956.093 972.33 956.87C973.048 957.621 973.912 958.217 974.87 958.62C975.88 959.054 976.97 959.272 978.07 959.26H984.35Z" fill="#012169"/>
<path d="M1038.25 944.9V963.77H1034V940.36C1033.95 939.64 1034.17 938.928 1034.62 938.36C1034.83 938.121 1035.09 937.931 1035.38 937.807C1035.67 937.682 1035.98 937.625 1036.3 937.64C1036.64 937.635 1036.99 937.706 1037.3 937.85C1037.67 938.024 1038.01 938.264 1038.3 938.56L1056.49 956.61V937.74H1060.78V961.36C1060.82 962.08 1060.6 962.789 1060.16 963.36C1059.96 963.589 1059.71 963.771 1059.43 963.892C1059.15 964.013 1058.85 964.071 1058.54 964.06C1058.15 964.049 1057.77 963.959 1057.42 963.796C1057.06 963.633 1056.75 963.399 1056.49 963.11L1038.25 944.9Z" fill="#012169"/>
<path d="M1098.46 963.77V959.26H1117.78C1118.79 959.326 1119.79 958.996 1120.57 958.34C1120.9 958.025 1121.16 957.644 1121.33 957.222C1121.5 956.8 1121.59 956.346 1121.57 955.89C1121.6 955.425 1121.52 954.96 1121.35 954.528C1121.18 954.095 1120.91 953.707 1120.57 953.39C1119.77 952.79 1118.78 952.495 1117.78 952.56H1105.94C1104.82 952.577 1103.71 952.391 1102.66 952.01C1101.74 951.68 1100.89 951.162 1100.18 950.49C1099.5 949.835 1098.97 949.04 1098.62 948.16C1098.24 947.226 1098.06 946.227 1098.07 945.22C1098.06 944.233 1098.23 943.254 1098.58 942.33C1098.91 941.46 1099.43 940.676 1100.11 940.04C1100.83 939.373 1101.68 938.863 1102.61 938.54C1103.7 938.155 1104.85 937.968 1106.01 937.99H1124.52V942.49H1106C1105.56 942.463 1105.13 942.523 1104.71 942.665C1104.3 942.808 1103.92 943.03 1103.59 943.32C1103.3 943.629 1103.07 943.995 1102.92 944.396C1102.78 944.797 1102.71 945.224 1102.74 945.65C1102.71 946.073 1102.78 946.497 1102.93 946.893C1103.08 947.29 1103.31 947.65 1103.61 947.95C1103.93 948.234 1104.3 948.453 1104.7 948.594C1105.11 948.735 1105.53 948.794 1105.96 948.77H1117.77C1120.4 948.77 1122.4 949.383 1123.77 950.61C1125.13 951.84 1125.77 953.71 1125.77 956.21C1125.78 957.231 1125.61 958.245 1125.28 959.21C1124.96 960.106 1124.46 960.922 1123.79 961.6C1123.08 962.301 1122.23 962.84 1121.29 963.18C1120.16 963.581 1118.96 963.774 1117.76 963.75L1098.46 963.77Z" fill="#012169"/>
</svg>
