<svg width="1290" height="332" viewBox="0 0 1290 332" fill="none" xmlns="http://www.w3.org/2000/svg">
<path fill-rule="evenodd" clip-rule="evenodd" d="M318.57 207.32C311.535 226.79 300.218 244.431 285.455 258.943C270.691 273.454 252.857 284.466 233.269 291.164C213.682 297.863 192.84 300.078 172.281 297.645C151.723 295.213 131.974 288.195 114.49 277.11L115.27 276.43C119.888 278.789 124.651 280.853 129.53 282.61C155.716 292.005 184.343 292.072 210.572 282.798C236.801 273.525 259.024 255.48 273.486 231.714C287.947 207.947 293.76 179.917 289.942 152.36C286.124 124.803 272.909 99.4089 252.53 80.47L277.85 58.47L278.85 57.63L278.79 57.58L279.16 57.26C308.045 85.4317 324.927 123.675 326.28 164C326.36 166.45 326.38 168.92 326.34 171.38C325.364 183.653 322.75 195.74 318.57 207.32Z" fill="#C7102E"/>
<path d="M218.47 55.49L217.68 56.17C191.72 42.828 161.807 39.3389 133.473 46.3481C105.14 53.3572 80.303 70.3902 63.5576 94.2966C46.8122 118.203 39.2911 147.365 42.3856 176.388C45.48 205.411 58.9806 232.332 80.39 252.17L55.07 274.17L54.07 275.01L54.13 275.07L53.76 275.39C24.8865 247.227 8.00545 209.001 6.64004 168.69C6.55337 166.243 6.53003 163.787 6.57003 161.32C8.44869 137.56 16.4382 114.689 29.7631 94.9269C43.088 75.1651 61.2957 59.1839 82.6187 48.5345C103.942 37.885 127.656 32.9291 151.459 34.1479C175.262 35.3666 198.346 42.7185 218.47 55.49Z" fill="#C7102E"/>
<path fill-rule="evenodd" clip-rule="evenodd" d="M322.53 222.24C313.133 248.292 297.351 271.571 276.63 289.946C255.908 308.32 230.909 321.204 203.92 327.417C176.931 333.631 148.814 332.975 122.144 325.51C95.4742 318.046 71.1025 304.011 51.26 284.69L80.33 259.45L80.44 259.57L128.84 217.57L132.84 214.12L152.43 197.12L176.25 176.44L226.94 132.44L263.3 145.54L238.97 166.66L227.22 176.87L212.6 189.57L188.79 210.25L169.2 227.25L165.2 230.71L107 281.18C128.567 294.869 153.33 302.698 178.847 303.895C204.363 305.091 229.75 299.614 252.504 288.003C275.257 276.392 294.589 259.049 308.593 237.686C322.598 216.322 330.789 191.676 332.36 166.18C332.35 185.295 329.024 204.263 322.53 222.24Z" fill="#012169"/>
<path fill-rule="evenodd" clip-rule="evenodd" d="M281.7 47.9L252.64 73.15L252.51 73.02L216.45 104.36L200.14 118.52L180.55 135.52L156.74 156.21L115.38 192.13L106.05 200.24L84.48 192.47C84.68 191.84 84.97 190.92 85.31 189.81C91.44 169.75 98.53 146.52 94.92 125.29C93.57 117.29 89.44 102.2 73.92 85.78C77.92 87.25 107.25 98.63 118.27 130.65C119.593 134.484 120.58 138.425 121.22 142.43L144.22 122.43L163.81 105.43L177.48 93.56L226 51.42C204.433 37.7309 179.67 29.9018 154.153 28.7053C128.637 27.5088 103.25 32.9862 80.4963 44.597C57.7432 56.2079 38.4106 73.5508 24.4066 94.9144C10.4025 116.278 2.21084 140.924 0.640015 166.42C0.67292 133.877 10.2939 102.066 28.3011 74.9594C46.3084 47.8529 71.9034 26.6532 101.889 14.0086C131.875 1.36401 164.921 -2.1649 196.901 3.86271C228.88 9.89033 258.375 25.2072 281.7 47.9Z" fill="#012169"/>
<path d="M485.65 194.1L472.36 171.79H430.42L437.73 159.23H464.92L445.17 126.07L404.94 194.07H387.26L438.26 109.21C439.052 107.784 440.132 106.538 441.43 105.55C442.709 104.639 444.25 104.169 445.82 104.21C447.372 104.164 448.895 104.635 450.15 105.55C451.414 106.557 452.47 107.8 453.26 109.21L504.34 194.07L485.65 194.1Z" fill="#C7102E"/>
<path d="M513.81 194.1V178.61H580.26C584.4 178.61 587.59 177.553 589.83 175.44C590.953 174.356 591.833 173.046 592.41 171.596C592.988 170.146 593.25 168.589 593.18 167.03C593.18 163.21 592.063 160.347 589.83 158.44C587.597 156.533 584.407 155.577 580.26 155.57H539.53C535.69 155.621 531.873 154.981 528.26 153.68C525.081 152.545 522.172 150.76 519.72 148.44C517.393 146.178 515.567 143.452 514.36 140.44C513.076 137.222 512.433 133.784 512.47 130.32C512.437 126.929 513.037 123.561 514.24 120.39C515.37 117.405 517.161 114.714 519.48 112.52C521.962 110.228 524.885 108.466 528.07 107.34C531.831 106.023 535.796 105.383 539.78 105.45H603.42V121H539.78C536.2 121 533.437 121.953 531.49 123.86C529.543 125.767 528.567 128.433 528.56 131.86C528.56 135.267 529.56 137.907 531.56 139.78C533.792 141.741 536.703 142.75 539.67 142.59H580.27C589.29 142.59 596.137 144.703 600.81 148.93C605.483 153.157 607.817 159.577 607.81 168.19C607.845 171.716 607.267 175.222 606.1 178.55C605.016 181.635 603.268 184.444 600.98 186.78C598.551 189.199 595.618 191.053 592.39 192.21C588.5 193.599 584.391 194.277 580.26 194.21L513.81 194.1Z" fill="#C7102E"/>
<path d="M621.1 194.1V105.46H700.22V121H636.46V178.66H700.34V194.1H621.1ZM647.8 155.57V142.57H696.93V155.57H647.8Z" fill="#C7102E"/>
<path d="M790 194.1C784.109 194.158 778.272 192.972 772.87 190.62C767.736 188.384 763.096 185.151 759.22 181.11C755.298 176.983 752.238 172.114 750.22 166.79C748.025 161.073 746.926 154.994 746.98 148.87C746.903 142.78 748.003 136.733 750.22 131.06C752.228 125.911 755.294 121.24 759.22 117.35C763.132 113.534 767.775 110.548 772.87 108.57C778.332 106.458 784.145 105.403 790 105.46H838V121H790C786.228 120.965 782.487 121.69 779 123.13C775.722 124.487 772.755 126.498 770.28 129.04C767.794 131.632 765.846 134.691 764.55 138.04C763.134 141.738 762.431 145.671 762.48 149.63C762.447 153.585 763.149 157.512 764.55 161.21C765.83 164.627 767.778 167.754 770.28 170.41C772.752 172.978 775.718 175.018 779 176.41C782.477 177.889 786.222 178.635 790 178.6H827.92V155.6H787.92V142.6H843.52V194.1H790Z" fill="#C7102E"/>
<path d="M940 194.1L917.57 169.47H884.41V155.81H921.35C926.957 155.81 931.183 154.287 934.03 151.24C936.87 148.19 938.29 143.79 938.29 138.01C938.29 132.23 936.81 127.96 933.85 125.15C930.89 122.34 926.71 120.95 921.35 120.95H873.1V194.1H857.74V105.46H921.38C925.99 105.385 930.575 106.151 934.91 107.72C938.714 109.109 942.169 111.314 945.03 114.18C947.852 117.077 950.015 120.55 951.37 124.36C952.888 128.665 953.633 133.205 953.57 137.77C953.57 145.17 951.963 151.367 948.75 156.36C945.568 161.339 940.834 165.132 935.28 167.15L961.98 194.15L940 194.1Z" fill="#C7102E"/>
<path d="M1008.43 194.1C1002.54 194.159 996.701 192.973 991.3 190.62C986.163 188.384 981.52 185.152 977.64 181.11C973.718 176.983 970.658 172.114 968.64 166.79C966.453 161.071 965.358 154.993 965.41 148.87C965.335 142.781 966.431 136.735 968.64 131.06C970.648 125.911 973.714 121.24 977.64 117.35C981.556 113.534 986.202 110.548 991.3 108.57C996.761 106.458 1002.57 105.402 1008.43 105.46H1030C1036.02 105.388 1041.99 106.464 1047.61 108.63C1052.76 110.6 1057.43 113.633 1061.33 117.53C1065.23 121.428 1068.26 126.102 1070.23 131.25C1072.4 136.869 1073.47 142.849 1073.4 148.87C1073.45 154.993 1072.36 161.071 1070.17 166.79C1068.15 172.114 1065.09 176.983 1061.17 181.11C1057.28 185.162 1052.61 188.395 1047.45 190.62C1041.94 192.988 1036 194.173 1030 194.1H1008.43ZM1030 178.61C1033.85 178.652 1037.66 177.907 1041.21 176.42C1044.56 175.018 1047.59 172.941 1050.11 170.32C1052.62 167.698 1054.58 164.587 1055.84 161.18C1057.24 157.482 1057.95 153.556 1057.92 149.6C1057.96 145.664 1057.25 141.755 1055.84 138.08C1054.58 134.702 1052.62 131.623 1050.1 129.041C1047.58 126.459 1044.56 124.429 1041.21 123.08C1037.65 121.649 1033.84 120.942 1030 121H1008.42C1004.65 120.967 1000.91 121.691 997.42 123.13C994.144 124.486 991.18 126.497 988.71 129.04C986.224 131.632 984.276 134.691 982.98 138.04C981.556 141.736 980.85 145.67 980.9 149.63C980.865 153.586 981.57 157.514 982.98 161.21C984.26 164.627 986.208 167.754 988.71 170.41C991.178 172.978 994.141 175.019 997.42 176.41C1000.9 177.888 1004.64 178.633 1008.42 178.6L1030 178.61Z" fill="#C7102E"/>
<path d="M1165.21 105.46H1180.33V155C1180.45 161.062 1179.54 167.1 1177.65 172.86C1176 177.731 1173.1 182.084 1169.24 185.48C1164.93 189.057 1159.86 191.602 1154.42 192.92C1139.97 196.173 1124.98 196.173 1110.53 192.92C1105.09 191.602 1100.02 189.057 1095.72 185.48C1091.86 182.086 1088.95 177.733 1087.31 172.86C1085.42 167.1 1084.51 161.062 1084.63 155V105.5H1100.63V155C1100.54 158.884 1101.1 162.756 1102.27 166.46C1103.29 169.514 1105.15 172.217 1107.64 174.26C1110.56 176.501 1113.96 178.025 1117.57 178.71C1127.73 180.59 1138.14 180.59 1148.3 178.71C1151.91 178.023 1155.31 176.499 1158.23 174.26C1160.72 172.217 1162.58 169.514 1163.6 166.46C1164.77 162.756 1165.33 158.884 1165.24 155L1165.21 105.46Z" fill="#C7102E"/>
<path d="M1221.05 169.47V154.47H1256.65C1262.1 154.47 1266.34 152.927 1269.39 149.84C1272.44 146.753 1273.96 142.69 1273.97 137.65C1273.97 132.53 1272.44 128.467 1269.39 125.46C1266.34 122.453 1262.09 120.967 1256.65 121H1209.71V194.1H1194.35V105.46H1256.65C1261.32 105.383 1265.97 106.149 1270.37 107.72C1274.17 109.089 1277.64 111.25 1280.55 114.06C1283.36 116.867 1285.53 120.256 1286.89 123.99C1289.81 132.507 1289.81 141.753 1286.89 150.27C1285.51 154.068 1283.35 157.535 1280.55 160.45C1277.67 163.366 1274.2 165.63 1270.37 167.09C1265.99 168.741 1261.33 169.549 1256.65 169.47H1221.05Z" fill="#C7102E"/>
<path d="M383.83 246.47V225.76H399C399.928 225.748 400.853 225.863 401.75 226.1C402.514 226.294 403.234 226.634 403.87 227.1C404.455 227.542 404.925 228.118 405.24 228.78C405.574 229.507 405.741 230.3 405.73 231.1C405.739 231.688 405.662 232.274 405.5 232.84C405.367 233.298 405.154 233.728 404.87 234.11C404.612 234.451 404.302 234.748 403.95 234.99C403.613 235.222 403.242 235.401 402.85 235.52C403.783 235.807 404.599 236.385 405.18 237.17C405.811 238.04 406.134 239.096 406.1 240.17C406.111 241.052 405.951 241.928 405.63 242.75C405.331 243.505 404.874 244.187 404.29 244.75C403.682 245.315 402.964 245.747 402.18 246.02C401.295 246.321 400.365 246.47 399.43 246.46L383.83 246.47ZM390.07 237.47V234.42H399C399.802 234.482 400.602 234.282 401.28 233.85C401.546 233.606 401.751 233.304 401.879 232.967C402.008 232.631 402.056 232.269 402.02 231.91C402.044 231.449 401.937 230.992 401.71 230.59C401.495 230.248 401.181 229.98 400.81 229.82C400.366 229.625 399.893 229.503 399.41 229.46C398.809 229.397 398.205 229.367 397.6 229.37H387.45V242.88H397.94C398.539 242.882 399.138 242.835 399.73 242.74C400.229 242.661 400.712 242.502 401.16 242.27C401.533 242.072 401.849 241.783 402.08 241.43C402.312 241.044 402.426 240.6 402.41 240.15C402.438 239.778 402.38 239.404 402.242 239.057C402.103 238.711 401.887 238.4 401.61 238.15C400.945 237.639 400.116 237.39 399.28 237.45L390.07 237.47Z" fill="#012169"/>
<path d="M436.12 246.47V225.76H454.61V229.37H439.71V242.85H454.64V246.47H436.12ZM442.36 237.47V234.42H453.84V237.47H442.36Z" fill="#012169"/>
<path d="M494.19 246.47V238.61L483.19 225.76H488.06L496.13 235.3L504.22 225.76H508.84L497.84 238.61V246.47H494.19Z" fill="#012169"/>
<path d="M544.57 246.47C543.195 246.482 541.832 246.207 540.57 245.66C539.372 245.136 538.288 244.381 537.38 243.44C536.465 242.472 535.748 241.334 535.27 240.09C534.762 238.752 534.507 237.331 534.52 235.9C534.502 234.478 534.756 233.066 535.27 231.74C535.747 230.537 536.465 229.445 537.38 228.53C538.302 227.661 539.386 226.981 540.57 226.53C541.846 226.042 543.203 225.797 544.57 225.81H549.57C550.978 225.791 552.377 226.042 553.69 226.55C554.89 227.012 555.98 227.721 556.89 228.63C557.799 229.54 558.508 230.63 558.97 231.83C559.478 233.143 559.729 234.542 559.71 235.95C559.723 237.381 559.468 238.802 558.96 240.14C558.482 241.384 557.765 242.522 556.85 243.49C555.939 244.437 554.848 245.192 553.64 245.71C552.355 246.262 550.968 246.538 549.57 246.52L544.57 246.47ZM549.57 242.85C550.469 242.86 551.36 242.686 552.19 242.34C552.968 242.015 553.672 241.535 554.26 240.93C554.85 240.312 555.309 239.58 555.61 238.78C555.938 237.914 556.104 236.996 556.1 236.07C556.106 235.151 555.94 234.238 555.61 233.38C555.315 232.586 554.855 231.863 554.26 231.26C553.669 230.664 552.965 230.192 552.19 229.87C551.358 229.532 550.468 229.362 549.57 229.37H544.57C543.685 229.363 542.808 229.533 541.99 229.87C541.22 230.193 540.523 230.668 539.942 231.268C539.361 231.868 538.908 232.58 538.61 233.36C538.281 234.225 538.119 235.145 538.13 236.07C538.122 236.995 538.285 237.914 538.61 238.78C538.911 239.578 539.366 240.309 539.95 240.93C540.515 241.53 541.195 242.01 541.95 242.34C542.766 242.685 543.644 242.859 544.53 242.85H549.57Z" fill="#012169"/>
<path d="M592.92 231.31V246.47H589.47V227.67C589.44 227.097 589.617 226.532 589.97 226.08C590.137 225.888 590.345 225.736 590.579 225.636C590.812 225.535 591.066 225.489 591.32 225.5C591.586 225.5 591.849 225.558 592.09 225.67C592.381 225.809 592.643 226.002 592.86 226.24L607.48 240.74V225.59H610.93V244.59C610.965 245.167 610.787 245.736 610.43 246.19C610.27 246.377 610.071 246.525 609.845 246.624C609.62 246.723 609.376 246.769 609.13 246.76C608.817 246.749 608.51 246.675 608.227 246.543C607.943 246.411 607.689 246.223 607.48 245.99L592.92 231.31Z" fill="#012169"/>
<path d="M641.3 246.47V225.76H653.3C654.669 225.747 656.027 225.998 657.3 226.5C658.499 226.964 659.589 227.672 660.5 228.58C661.406 229.494 662.117 230.583 662.59 231.78C663.105 233.092 663.363 234.491 663.35 235.9C663.359 237.332 663.102 238.753 662.59 240.09C662.119 241.333 661.409 242.471 660.5 243.44C659.593 244.387 658.505 245.142 657.3 245.66C656.037 246.202 654.675 246.478 653.3 246.47H641.3ZM653.3 242.85C654.186 242.859 655.064 242.685 655.88 242.34C656.633 242.006 657.313 241.527 657.88 240.93C658.47 240.312 658.93 239.58 659.23 238.78C659.563 237.916 659.729 236.996 659.72 236.07C659.731 235.15 659.565 234.237 659.23 233.38C658.935 232.586 658.475 231.863 657.88 231.26C657.309 230.672 656.63 230.2 655.88 229.87C655.062 229.533 654.185 229.363 653.3 229.37H644.89V242.85H653.3Z" fill="#012169"/>
<path d="M728.47 246.47V225.76H747V229.37H732.1V242.85H747V246.47H728.47ZM734.71 237.47V234.42H746.19V237.47H734.71Z" fill="#012169"/>
<path d="M797.79 246.47L789.1 238L780.49 246.46H775.79L786.91 235.69L776.59 225.75H781.59L789.48 233.41L797.26 225.75H801.96L791.65 235.69L802.87 246.46L797.79 246.47Z" fill="#012169"/>
<path d="M838.57 240.72V237.21H846.89C847.437 237.245 847.986 237.168 848.502 236.982C849.018 236.796 849.491 236.506 849.89 236.13C850.253 235.753 850.535 235.305 850.719 234.815C850.903 234.325 850.985 233.803 850.96 233.28C850.988 232.757 850.908 232.233 850.724 231.743C850.54 231.252 850.256 230.805 849.89 230.43C849.487 230.06 849.014 229.775 848.498 229.593C847.983 229.411 847.436 229.335 846.89 229.37H835.89V246.47H832.3V225.76H846.86C847.949 225.741 849.033 225.917 850.06 226.28C850.946 226.606 851.756 227.109 852.44 227.76C853.099 228.418 853.604 229.214 853.92 230.09C854.614 232.078 854.614 234.242 853.92 236.23C853.6 237.119 853.096 237.93 852.44 238.61C851.765 239.289 850.954 239.817 850.06 240.16C849.038 240.546 847.952 240.736 846.86 240.72H838.57Z" fill="#012169"/>
<path d="M883.9 246.47V225.76H902.39V229.37H887.49V242.85H902.42V246.47H883.9ZM890.14 237.47V234.42H901.62V237.47H890.14Z" fill="#012169"/>
<path d="M941.86 246.47C940.485 246.482 939.122 246.207 937.86 245.66C936.662 245.134 935.579 244.38 934.67 243.44C933.755 242.472 933.038 241.334 932.56 240.09C932.052 238.752 931.797 237.331 931.81 235.9C931.792 234.478 932.046 233.066 932.56 231.74C933.037 230.537 933.755 229.445 934.67 228.53C935.593 227.663 936.677 226.983 937.86 226.53C939.136 226.042 940.493 225.797 941.86 225.81H953.08V229.42H941.86C940.975 229.413 940.098 229.583 939.28 229.92C938.528 230.247 937.848 230.719 937.28 231.31C936.7 231.915 936.245 232.629 935.94 233.41C935.611 234.275 935.449 235.195 935.46 236.12C935.452 237.045 935.615 237.964 935.94 238.83C936.244 239.626 936.699 240.356 937.28 240.98C937.845 241.58 938.525 242.06 939.28 242.39C940.096 242.735 940.974 242.909 941.86 242.9H953.08V246.52L941.86 246.47Z" fill="#012169"/>
<path d="M989.53 246.47V229.37H981.66V225.76H1001V229.37H993.14V246.47H989.53Z" fill="#012169"/>
<path d="M1048 246.47L1044.89 241.26H1035.09L1036.8 238.32H1043.15L1038.54 230.57L1029.13 246.47H1025L1036.91 226.64C1037.1 226.307 1037.35 226.015 1037.65 225.78C1037.94 225.578 1038.29 225.47 1038.65 225.47C1039.01 225.463 1039.36 225.572 1039.65 225.78C1039.95 226.015 1040.2 226.307 1040.38 226.64L1052.32 246.47H1048Z" fill="#012169"/>
<path d="M1084.38 246.47V229.37H1076.52V225.76H1095.87V229.37H1088V246.47H1084.38Z" fill="#012169"/>
<path d="M1125.33 246.47V225.76H1129V246.47H1125.33Z" fill="#012169"/>
<path d="M1169.07 246.47C1167.69 246.482 1166.33 246.207 1165.07 245.66C1163.87 245.136 1162.79 244.381 1161.88 243.44C1160.96 242.472 1160.25 241.334 1159.77 240.09C1159.26 238.752 1159.01 237.331 1159.02 235.9C1159 234.478 1159.26 233.066 1159.77 231.74C1160.25 230.537 1160.97 229.445 1161.88 228.53C1162.8 227.661 1163.89 226.981 1165.07 226.53C1166.35 226.042 1167.7 225.797 1169.07 225.81H1174.07C1175.48 225.791 1176.88 226.042 1178.19 226.55C1179.39 227.012 1180.48 227.721 1181.39 228.63C1182.3 229.54 1183.01 230.63 1183.47 231.83C1183.98 233.143 1184.23 234.542 1184.21 235.95C1184.22 237.381 1183.97 238.802 1183.46 240.14C1182.98 241.384 1182.27 242.522 1181.35 243.49C1180.44 244.437 1179.35 245.192 1178.14 245.71C1176.85 246.262 1175.47 246.538 1174.07 246.52L1169.07 246.47ZM1174.07 242.85C1174.97 242.86 1175.86 242.686 1176.69 242.34C1177.47 242.015 1178.17 241.535 1178.76 240.93C1179.35 240.312 1179.81 239.58 1180.11 238.78C1180.44 237.914 1180.6 236.996 1180.6 236.07C1180.61 235.151 1180.44 234.238 1180.11 233.38C1179.81 232.586 1179.35 231.863 1178.76 231.26C1178.17 230.664 1177.47 230.192 1176.69 229.87C1175.86 229.532 1174.97 229.362 1174.07 229.37H1169.07C1168.19 229.363 1167.31 229.533 1166.49 229.87C1165.72 230.193 1165.02 230.668 1164.44 231.268C1163.86 231.868 1163.41 232.58 1163.11 233.36C1162.78 234.225 1162.62 235.145 1162.63 236.07C1162.62 236.995 1162.79 237.914 1163.11 238.78C1163.41 239.578 1163.87 240.309 1164.45 240.93C1165.01 241.53 1165.69 242.01 1166.45 242.34C1167.27 242.685 1168.14 242.859 1169.03 242.85H1174.07Z" fill="#012169"/>
<path d="M1217.42 231.31V246.47H1214V227.67C1213.97 227.097 1214.15 226.532 1214.5 226.08C1214.67 225.888 1214.87 225.736 1215.11 225.636C1215.34 225.535 1215.6 225.489 1215.85 225.5C1216.12 225.5 1216.38 225.558 1216.62 225.67C1216.91 225.809 1217.17 226.002 1217.39 226.24L1232.01 240.74V225.59H1235.46V244.59C1235.49 245.167 1235.32 245.736 1234.96 246.19C1234.8 246.377 1234.6 246.525 1234.38 246.624C1234.15 246.723 1233.91 246.769 1233.66 246.76C1233.35 246.752 1233.04 246.68 1232.75 246.549C1232.47 246.419 1232.21 246.232 1232 246L1217.42 231.31Z" fill="#012169"/>
<path d="M1265.8 246.47V242.85H1281.33C1282.14 242.907 1282.95 242.641 1283.57 242.11C1283.84 241.852 1284.04 241.54 1284.18 241.195C1284.31 240.85 1284.37 240.48 1284.35 240.11C1284.38 239.74 1284.32 239.368 1284.19 239.022C1284.05 238.676 1283.84 238.364 1283.57 238.11C1282.93 237.623 1282.13 237.385 1281.33 237.44H1271.82C1270.92 237.45 1270.03 237.301 1269.18 237C1268.44 236.728 1267.76 236.309 1267.18 235.77C1266.64 235.242 1266.21 234.604 1265.93 233.9C1265.63 233.149 1265.48 232.348 1265.49 231.54C1265.48 230.748 1265.62 229.962 1265.9 229.22C1266.17 228.522 1266.59 227.894 1267.13 227.38C1267.71 226.844 1268.39 226.432 1269.13 226.17C1270.01 225.86 1270.93 225.711 1271.86 225.73H1286.74V229.34H1271.86C1271.15 229.299 1270.45 229.54 1269.92 230.01C1269.69 230.259 1269.5 230.554 1269.39 230.875C1269.27 231.197 1269.22 231.538 1269.24 231.88C1269.22 232.221 1269.27 232.562 1269.39 232.881C1269.51 233.2 1269.7 233.49 1269.94 233.73C1270.46 234.19 1271.14 234.427 1271.83 234.39H1281.32C1283.05 234.264 1284.76 234.792 1286.12 235.87C1286.7 236.458 1287.15 237.165 1287.43 237.941C1287.71 238.718 1287.83 239.546 1287.76 240.37C1287.77 241.194 1287.63 242.013 1287.36 242.79C1287.11 243.513 1286.7 244.172 1286.17 244.72C1285.6 245.283 1284.92 245.713 1284.17 245.98C1283.26 246.305 1282.3 246.461 1281.33 246.44L1265.8 246.47Z" fill="#012169"/>
</svg>
